<svg width="1600" height="900" viewBox="0 0 1600 900" fill="none" xmlns="http://www.w3.org/2000/svg">
  <defs>
    <linearGradient id="bg" x1="160" y1="110" x2="1430" y2="790" gradientUnits="userSpaceOnUse">
      <stop stop-color="#0D1B2A"/>
      <stop offset="0.55" stop-color="#102B4A"/>
      <stop offset="1" stop-color="#0A1424"/>
    </linearGradient>
    <linearGradient id="card" x1="360" y1="220" x2="1220" y2="700" gradientUnits="userSpaceOnUse">
      <stop stop-color="#10243A"/>
      <stop offset="1" stop-color="#142E4A"/>
    </linearGradient>
    <linearGradient id="ringA" x1="0" y1="0" x2="1" y2="1">
      <stop stop-color="#61D3FF"/>
      <stop offset="1" stop-color="#4C9BFF"/>
    </linearGradient>
    <linearGradient id="ringB" x1="0" y1="0" x2="1" y2="1">
      <stop stop-color="#6AF0D0"/>
      <stop offset="1" stop-color="#37B9D5"/>
    </linearGradient>
    <filter id="shadow" x="260" y="150" width="1080" height="620" filterUnits="userSpaceOnUse" color-interpolation-filters="sRGB">
      <feFlood flood-opacity="0" result="BackgroundImageFix"/>
      <feColorMatrix in="SourceAlpha" type="matrix" values="0 0 0 0 0 0 0 0 0 0 0 0 0 0 0 0 0 0 127 0" result="hardAlpha"/>
      <feOffset dy="24"/>
      <feGaussianBlur stdDeviation="28"/>
      <feColorMatrix type="matrix" values="0 0 0 0 0.01 0 0 0 0 0.06 0 0 0 0 0.13 0 0 0 0.45 0"/>
      <feBlend mode="normal" in2="BackgroundImageFix" result="effect1_dropShadow_1_1"/>
      <feBlend mode="normal" in="SourceGraphic" in2="effect1_dropShadow_1_1" result="shape"/>
    </filter>
  </defs>

  <rect width="1600" height="900" fill="url(#bg)"/>
  <circle cx="1290" cy="170" r="170" fill="#143D67" fill-opacity="0.25"/>
  <circle cx="1420" cy="730" r="210" fill="#0E335A" fill-opacity="0.2"/>
  <circle cx="250" cy="760" r="220" fill="#12365C" fill-opacity="0.18"/>

  <g filter="url(#shadow)">
    <rect x="320" y="190" width="960" height="520" rx="42" fill="url(#card)" stroke="#2B4E70"/>
  </g>

  <path d="M545 426C594 361 658 328 739 328C826 328 888 361 934 426" stroke="#7AD9FF" stroke-width="8" stroke-linecap="round" opacity="0.6"/>
  <path d="M941 473L1090 473" stroke="#7AD9FF" stroke-width="5" stroke-linecap="round" opacity="0.6"/>
  <path d="M509 473L658 473" stroke="#6AE7CC" stroke-width="5" stroke-linecap="round" opacity="0.6"/>
  <path d="M800 506L800 598" stroke="#9AC5FF" stroke-width="4" stroke-dasharray="10 12" opacity="0.7"/>

  <g>
    <circle cx="468" cy="475" r="76" fill="#09131F" stroke="url(#ringB)" stroke-width="10"/>
    <rect x="436" y="448" width="64" height="40" rx="20" fill="#E9F6FF"/>
    <circle cx="458" cy="468" r="7" fill="#0C1730"/>
    <circle cx="478" cy="468" r="7" fill="#0C1730"/>
    <path d="M444 490C453 500 464 505 478 505C492 505 503 500 512 490" stroke="#E9F6FF" stroke-width="6" stroke-linecap="round"/>
    <text x="468" y="585" text-anchor="middle" fill="#D7ECFF" font-size="32" font-family="'Segoe UI', 'Malgun Gothic', sans-serif">Agent A</text>
  </g>

  <g>
    <circle cx="1132" cy="475" r="76" fill="#09131F" stroke="url(#ringA)" stroke-width="10"/>
    <rect x="1100" y="448" width="64" height="40" rx="20" fill="#E9F6FF"/>
    <circle cx="1122" cy="468" r="7" fill="#0C1730"/>
    <circle cx="1142" cy="468" r="7" fill="#0C1730"/>
    <path d="M1108 490C1117 500 1128 505 1142 505C1156 505 1167 500 1176 490" stroke="#E9F6FF" stroke-width="6" stroke-linecap="round"/>
    <text x="1132" y="585" text-anchor="middle" fill="#D7ECFF" font-size="32" font-family="'Segoe UI', 'Malgun Gothic', sans-serif">Agent B</text>
  </g>

  <g>
    <rect x="700" y="392" width="200" height="96" rx="28" fill="#0F2035" stroke="#7FAEFF" stroke-width="4"/>
    <text x="800" y="438" text-anchor="middle" fill="#F3F8FF" font-size="30" font-weight="700" font-family="'Segoe UI', 'Malgun Gothic', sans-serif">A2A</text>
    <text x="800" y="474" text-anchor="middle" fill="#CBE4FF" font-size="19" font-family="'Segoe UI', 'Malgun Gothic', sans-serif">Agent to Agent</text>
  </g>

  <g>
    <rect x="670" y="612" width="260" height="58" rx="20" fill="#0E1D31" stroke="#4AA0D8" stroke-width="3"/>
    <text x="800" y="649" text-anchor="middle" fill="#DDF3FF" font-size="26" font-family="'Segoe UI', 'Malgun Gothic', sans-serif">delegate / negotiate / stream</text>
  </g>

  <text x="438" y="294" fill="#F2F7FF" font-size="78" font-weight="700" font-family="'Segoe UI', 'Malgun Gothic', sans-serif">A2A란 무엇인가?</text>
  <text x="438" y="352" fill="#B6D4F0" font-size="34" font-family="'Segoe UI', 'Malgun Gothic', sans-serif">MCP 다음에 이해해야 할 에이전트 간 통신 표준</text>

  <g opacity="0.9">
    <rect x="438" y="618" width="144" height="44" rx="18" fill="#17314C"/>
    <rect x="598" y="618" width="132" height="44" rx="18" fill="#17314C"/>
    <rect x="748" y="618" width="122" height="44" rx="18" fill="#17314C"/>
    <text x="510" y="647" text-anchor="middle" fill="#D8EEFF" font-size="22" font-family="'Segoe UI', 'Malgun Gothic', sans-serif">Multi-Agent</text>
    <text x="664" y="647" text-anchor="middle" fill="#D8EEFF" font-size="22" font-family="'Segoe UI', 'Malgun Gothic', sans-serif">Protocol</text>
    <text x="809" y="647" text-anchor="middle" fill="#D8EEFF" font-size="22" font-family="'Segoe UI', 'Malgun Gothic', sans-serif">2026</text>
  </g>
</svg>
