<svg width="1600" height="900" viewBox="0 0 1600 900" fill="none" xmlns="http://www.w3.org/2000/svg">
  <defs>
    <linearGradient id="bg" x1="160" y1="90" x2="1470" y2="790" gradientUnits="userSpaceOnUse">
      <stop stop-color="#0E1724"/>
      <stop offset="0.55" stop-color="#142640"/>
      <stop offset="1" stop-color="#0C1420"/>
    </linearGradient>
    <linearGradient id="card" x1="330" y1="180" x2="1280" y2="710" gradientUnits="userSpaceOnUse">
      <stop stop-color="#111F32"/>
      <stop offset="1" stop-color="#17304A"/>
    </linearGradient>
    <linearGradient id="accent" x1="520" y1="390" x2="1060" y2="390" gradientUnits="userSpaceOnUse">
      <stop stop-color="#6BEECD"/>
      <stop offset="1" stop-color="#67A7FF"/>
    </linearGradient>
  </defs>

  <rect width="1600" height="900" fill="url(#bg)"/>
  <circle cx="1270" cy="180" r="180" fill="#183B5B" fill-opacity="0.22"/>
  <circle cx="250" cy="740" r="220" fill="#123654" fill-opacity="0.18"/>

  <rect x="320" y="180" width="960" height="540" rx="42" fill="url(#card)" stroke="#2B4C6C"/>

  <text x="420" y="302" fill="#F3F8FE" font-size="78" font-weight="700" font-family="'Segoe UI', 'Malgun Gothic', sans-serif">AI Eval이란 무엇인가?</text>
  <text x="420" y="360" fill="#BFD8F2" font-size="34" font-family="'Segoe UI', 'Malgun Gothic', sans-serif">벤치마크보다 중요한 실전 검증</text>

  <rect x="420" y="415" width="760" height="210" rx="28" fill="#0E1A2A" stroke="#34587C"/>
  <text x="470" y="475" fill="#EAF6FF" font-size="34" font-family="'Segoe UI', 'Malgun Gothic', sans-serif">Benchmark</text>
  <text x="750" y="475" fill="#8AD9FF" font-size="34" font-family="'Segoe UI', 'Malgun Gothic', sans-serif">vs</text>
  <text x="860" y="475" fill="#EAF6FF" font-size="34" font-family="'Segoe UI', 'Malgun Gothic', sans-serif">Product Eval</text>

  <rect x="470" y="510" width="240" height="64" rx="20" fill="#162B42"/>
  <rect x="790" y="510" width="330" height="64" rx="20" fill="#17384C"/>
  <text x="590" y="551" text-anchor="middle" fill="#DDEFFF" font-size="26" font-family="'Segoe UI', 'Malgun Gothic', sans-serif">public scores</text>
  <text x="955" y="551" text-anchor="middle" fill="#DDF8F2" font-size="26" font-family="'Segoe UI', 'Malgun Gothic', sans-serif">real logs, rubrics, traces</text>

  <path d="M548 390H1050" stroke="url(#accent)" stroke-width="10" stroke-linecap="round"/>
  <circle cx="548" cy="390" r="18" fill="#6BEECD"/>
  <circle cx="799" cy="390" r="18" fill="#98D8FF"/>
  <circle cx="1050" cy="390" r="18" fill="#67A7FF"/>
  <text x="548" y="430" text-anchor="middle" fill="#D8F3FF" font-size="24" font-family="'Segoe UI', 'Malgun Gothic', sans-serif">Prompt</text>
  <text x="799" y="430" text-anchor="middle" fill="#D8F3FF" font-size="24" font-family="'Segoe UI', 'Malgun Gothic', sans-serif">RAG</text>
  <text x="1050" y="430" text-anchor="middle" fill="#D8F3FF" font-size="24" font-family="'Segoe UI', 'Malgun Gothic', sans-serif">Agent</text>

  <g opacity="0.92">
    <rect x="420" y="652" width="144" height="44" rx="18" fill="#17314C"/>
    <rect x="580" y="652" width="124" height="44" rx="18" fill="#17314C"/>
    <rect x="720" y="652" width="112" height="44" rx="18" fill="#17314C"/>
    <text x="492" y="681" text-anchor="middle" fill="#D8EEFF" font-size="22" font-family="'Segoe UI', 'Malgun Gothic', sans-serif">Rubrics</text>
    <text x="642" y="681" text-anchor="middle" fill="#D8EEFF" font-size="22" font-family="'Segoe UI', 'Malgun Gothic', sans-serif">Trace</text>
    <text x="776" y="681" text-anchor="middle" fill="#D8EEFF" font-size="22" font-family="'Segoe UI', 'Malgun Gothic', sans-serif">2026</text>
  </g>
</svg>
