<svg width="1600" height="900" viewBox="0 0 1600 900" fill="none" xmlns="http://www.w3.org/2000/svg">
  <defs>
    <linearGradient id="bg" x1="150" y1="80" x2="1450" y2="810" gradientUnits="userSpaceOnUse">
      <stop stop-color="#111521"/>
      <stop offset="0.55" stop-color="#1A2337"/>
      <stop offset="1" stop-color="#0F1622"/>
    </linearGradient>
    <linearGradient id="card" x1="310" y1="180" x2="1270" y2="710" gradientUnits="userSpaceOnUse">
      <stop stop-color="#121B2A"/>
      <stop offset="1" stop-color="#182942"/>
    </linearGradient>
    <linearGradient id="line" x1="0" y1="0" x2="1" y2="1">
      <stop stop-color="#71F0CD"/>
      <stop offset="0.5" stop-color="#8FC8FF"/>
      <stop offset="1" stop-color="#7695FF"/>
    </linearGradient>
  </defs>

  <rect width="1600" height="900" fill="url(#bg)"/>
  <circle cx="1300" cy="160" r="170" fill="#1F4268" fill-opacity="0.22"/>
  <circle cx="240" cy="740" r="220" fill="#163656" fill-opacity="0.18"/>

  <rect x="300" y="180" width="1000" height="540" rx="42" fill="url(#card)" stroke="#324C69"/>

  <text x="408" y="296" fill="#F3F8FF" font-size="78" font-weight="700" font-family="'Segoe UI', 'Malgun Gothic', sans-serif">Vibe Coding이란 무엇인가?</text>
  <text x="408" y="354" fill="#BDD7F1" font-size="34" font-family="'Segoe UI', 'Malgun Gothic', sans-serif">왜 뜨고 어디까지 믿어야 할까</text>

  <path d="M478 466H1118" stroke="url(#line)" stroke-width="10" stroke-linecap="round"/>
  <circle cx="478" cy="466" r="18" fill="#72EED0"/>
  <circle cx="690" cy="466" r="18" fill="#82DBEA"/>
  <circle cx="902" cy="466" r="18" fill="#8AB9FF"/>
  <circle cx="1118" cy="466" r="18" fill="#7792FF"/>

  <text x="478" y="510" text-anchor="middle" fill="#DDF3FF" font-size="24" font-family="'Segoe UI', 'Malgun Gothic', sans-serif">Idea</text>
  <text x="690" y="510" text-anchor="middle" fill="#DDF3FF" font-size="24" font-family="'Segoe UI', 'Malgun Gothic', sans-serif">Prompt</text>
  <text x="902" y="510" text-anchor="middle" fill="#DDF3FF" font-size="24" font-family="'Segoe UI', 'Malgun Gothic', sans-serif">Agent</text>
  <text x="1118" y="510" text-anchor="middle" fill="#DDF3FF" font-size="24" font-family="'Segoe UI', 'Malgun Gothic', sans-serif">Review</text>

  <rect x="432" y="580" width="760" height="82" rx="24" fill="#0F1723" stroke="#456A8E"/>
  <text x="812" y="632" text-anchor="middle" fill="#EDF7FF" font-size="30" font-family="'Segoe UI', 'Malgun Gothic', sans-serif">prototype fast, tighten later</text>

  <g opacity="0.92">
    <rect x="408" y="390" width="154" height="46" rx="18" fill="#1A304A"/>
    <rect x="578" y="390" width="132" height="46" rx="18" fill="#1A304A"/>
    <rect x="726" y="390" width="162" height="46" rx="18" fill="#1A304A"/>
    <text x="485" y="420" text-anchor="middle" fill="#D7EEFF" font-size="22" font-family="'Segoe UI', 'Malgun Gothic', sans-serif">coding agent</text>
    <text x="644" y="420" text-anchor="middle" fill="#D7EEFF" font-size="22" font-family="'Segoe UI', 'Malgun Gothic', sans-serif">2026</text>
    <text x="807" y="420" text-anchor="middle" fill="#D7EEFF" font-size="22" font-family="'Segoe UI', 'Malgun Gothic', sans-serif">workflow shift</text>
  </g>
</svg>
