<svg xmlns="http://www.w3.org/2000/svg" width="1200" height="630" viewBox="0 0 1200 630" role="img" aria-labelledby="title desc">
  <title id="title">GoodbyeDPI</title>
  <desc id="desc">Deep Packet Inspection circumvention utility for Windows</desc>
  <defs>
    <linearGradient id="bg" x1="0" y1="0" x2="1" y2="1">
      <stop offset="0%" stop-color="#071421" />
      <stop offset="100%" stop-color="#123b5b" />
    </linearGradient>
    <linearGradient id="accent" x1="0" y1="0" x2="1" y2="0">
      <stop offset="0%" stop-color="#44d7ff" />
      <stop offset="100%" stop-color="#9ef27b" />
    </linearGradient>
  </defs>
  <rect width="1200" height="630" fill="url(#bg)" />
  <circle cx="918" cy="186" r="146" fill="#0b2034" stroke="#1ed2ff" stroke-width="4" opacity="0.8" />
  <circle cx="918" cy="186" r="96" fill="none" stroke="#9ef27b" stroke-width="12" opacity="0.7" />
  <path d="M806 300 C866 230, 970 230, 1030 300" fill="none" stroke="#44d7ff" stroke-width="10" stroke-linecap="round" opacity="0.8" />
  <path d="M780 340 C858 252, 978 252, 1056 340" fill="none" stroke="#9ef27b" stroke-width="10" stroke-linecap="round" opacity="0.55" />
  <rect x="72" y="78" width="494" height="474" rx="28" fill="#0b1a2a" stroke="#1f4f74" stroke-width="2" />
  <text x="110" y="172" font-size="78" fill="#ffffff" font-family="Segoe UI, Arial, sans-serif" font-weight="700">GoodbyeDPI</text>
  <text x="110" y="238" font-size="28" fill="#b3cce0" font-family="Segoe UI, Arial, sans-serif">Windows packet filtering tool for bypassing DPI-based blocks</text>
  <rect x="110" y="290" width="210" height="54" rx="27" fill="#103551" />
  <text x="150" y="324" font-size="24" fill="#dff7ff" font-family="Segoe UI, Arial, sans-serif">Windows 7-11</text>
  <rect x="338" y="290" width="194" height="54" rx="27" fill="#103551" />
  <text x="386" y="324" font-size="24" fill="#dff7ff" font-family="Segoe UI, Arial, sans-serif">Admin required</text>
  <path d="M110 404 L514 404" stroke="url(#accent)" stroke-width="10" stroke-linecap="round" />
  <text x="110" y="462" font-size="32" fill="#ffffff" font-family="Segoe UI, Arial, sans-serif" font-weight="600">Quick start from the official Releases page</text>
</svg>
